<?xml version="1.0" encoding="utf-8"?>
<!-- Generator: Adobe Illustrator 16.0.0, SVG Export Plug-In . SVG Version: 6.00 Build 0)  -->
<!DOCTYPE svg PUBLIC "-//W3C//DTD SVG 1.1//EN" "http://www.w3.org/Graphics/SVG/1.1/DTD/svg11.dtd">
<svg version="1.1" id="Layer_1" xmlns="http://www.w3.org/2000/svg" xmlns:xlink="http://www.w3.org/1999/xlink" x="0px" y="0px"
	 width="46.334px" height="46.334px" viewBox="0 0 46.334 46.334" enable-background="new 0 0 46.334 46.334" xml:space="preserve">
<circle id="twit" fill="#FFFFFF" cx="23.167" cy="23.167" r="19.594"/>
<path id="twit_6_" fill="#3D5F96" d="M34.483,17.679c-0.73,0.323-1.515,0.543-2.338,0.641c0.84-0.504,1.486-1.301,1.79-2.252
	c-0.786,0.467-1.658,0.805-2.585,0.988c-0.742-0.792-1.801-1.285-2.971-1.285c-2.248,0-4.07,1.822-4.07,4.069
	c0,0.319,0.035,0.63,0.105,0.928c-3.382-0.17-6.383-1.79-8.389-4.252c-0.351,0.602-0.552,1.3-0.552,2.046
	c0,1.411,0.719,2.657,1.811,3.388c-0.667-0.021-1.294-0.204-1.843-0.509c-0.001,0.017-0.001,0.034-0.001,0.051
	c0,1.972,1.403,3.617,3.265,3.991c-0.342,0.093-0.701,0.143-1.072,0.143c-0.263,0-0.517-0.025-0.766-0.073
	c0.518,1.617,2.021,2.794,3.803,2.827c-1.394,1.092-3.148,1.742-5.056,1.742c-0.328,0-0.652-0.019-0.971-0.057
	c1.801,1.154,3.94,1.828,6.239,1.828c7.486,0,11.58-6.202,11.58-11.58c0-0.177-0.004-0.353-0.012-0.526
	C33.248,19.212,33.938,18.495,34.483,17.679z"/>
</svg>
